<svg width="500" height="242" viewBox="0 0 500 242" fill="none" xmlns="http://www.w3.org/2000/svg">
<rect width="500" height="242" fill="#EEEEEE"/>
<path d="M250.34 161.356C239.479 161.356 229.417 157.26 221.75 149.699C205.938 134.103 205.938 108.897 221.75 93.3013C229.417 85.7397 239.479 81.6438 250.34 81.6438C261.201 81.6438 271.264 85.7397 278.931 93.3013C294.743 108.897 294.743 134.103 278.931 149.699C271.264 157.26 261.201 161.356 250.34 161.356ZM250.34 84.7945C240.438 84.7945 231.014 88.5753 223.986 95.5068C209.451 109.842 209.451 133 223.986 147.336C231.014 154.267 240.278 158.048 250.34 158.048C260.403 158.048 269.667 154.425 276.694 147.493C291.229 133.157 291.229 110 276.694 95.6643C269.667 88.7328 260.243 84.7945 250.34 84.7945Z" fill="#A3A3A3"/>
<path d="M273.5 98.6576C260.722 86.0549 239.958 86.0549 227.181 98.6576C214.403 111.26 214.403 131.74 227.181 144.343C239.958 156.945 260.722 156.945 273.5 144.343C286.278 131.74 286.278 111.26 273.5 98.6576ZM233.729 134.103C234.368 134.733 234.368 135.678 233.729 136.308C233.41 136.623 232.93 136.781 232.611 136.781C232.292 136.781 231.812 136.623 231.493 136.308C222.389 127.329 222.389 112.836 231.493 104.014C232.132 103.384 233.09 103.384 233.729 104.014C234.368 104.644 234.368 105.589 233.729 106.219C225.903 113.938 225.903 126.541 233.729 134.103ZM247.625 100.548C244.75 100.548 241.875 101.178 239.319 102.438C239.16 102.596 238.84 102.596 238.68 102.596C238.042 102.596 237.562 102.281 237.243 101.651C236.924 100.863 237.243 99.9179 238.042 99.6028C241.076 98.185 244.271 97.5549 247.625 97.3973C248.424 97.3973 249.222 98.0275 249.222 98.9727C249.222 99.7604 248.424 100.548 247.625 100.548Z" fill="#A3A3A3"/>
<path d="M290.59 168.13C288.993 168.13 287.556 167.5 286.278 166.397L273.021 153.322C272.382 152.692 272.382 151.747 273.021 151.117L280.208 144.028C280.847 143.397 281.806 143.397 282.444 144.028L295.701 157.103C296.819 158.206 297.458 159.623 297.458 161.356C297.458 162.932 296.819 164.349 295.701 165.61L294.743 166.397C293.625 167.5 292.187 168.13 290.59 168.13ZM276.375 152.062L288.514 164.034C289.632 165.137 291.389 165.137 292.507 164.034L293.465 163.089C293.944 162.617 294.264 161.829 294.264 161.199C294.264 160.411 293.944 159.781 293.465 159.308L281.326 147.336L276.375 152.062Z" fill="#A3A3A3"/>
<path d="M250.34 177.897C235.486 177.897 220.792 172.226 209.771 161.356C187.41 139.301 187.41 103.541 209.771 81.6439C232.132 59.5891 268.389 59.5891 290.59 81.6439C309.597 100.39 312.792 130.322 297.937 152.534C297.458 153.322 296.5 153.479 295.701 153.007C294.903 152.534 294.743 151.589 295.222 150.801C309.118 129.849 306.243 101.651 288.194 84.0069C267.111 63.2124 232.931 63.2124 211.847 84.0069C190.764 104.801 190.764 138.514 211.847 159.308C229.896 177.11 258.326 179.945 279.569 166.24C280.368 165.767 281.326 165.925 281.806 166.712C282.285 167.5 282.125 168.445 281.326 168.918C272.063 174.904 261.201 177.897 250.34 177.897Z" fill="#A3A3A3"/>
</svg>
